.
..............................Site Info...........................

 -   http://www.scenetime.com  *_*   

SceneTime is going to Close sign up on march/1, hurry up! get in before the doors are closed.

     We care to share . Join us on  http://www.scenetime.com 

    Be the first to get new release at  http://www.scenetime.com

        Seed back for speed


...................................NFO:.................................................








































          
          
              
              
                    
                    
                    
                    

They.All.Must.Die.1998.DVDRiP.AC3-2.0.XviD-SiC

Poster:
[img]http://i.imgur.com/ZEYNq.jpg[/img]

IMDB Link:
http://www.imdb.com/title/tt2087994/

Description:
Three black street thugs sexually assault and torture a white woman who moves into their neighborhood.


General
Complete name                    : They.All.Must.Die.1998.DVDRiP.AC3-2.0.XviD-SiC.avi
Format                           : AVI
Format/Info                      : Audio Video Interleave
File size                        : 1.37 GiB
Duration                         : 1h 14mn
Overall bit rate                 : 2 634 Kbps

Video
ID                               : 0
Format                           : MPEG-4 Visual
Format profile                   : Simple@L3
Format settings, BVOP            : 2
Format settings, QPel            : No
Format settings, GMC             : No warppoints
Format settings, Matrix          : Default (H.263)
Muxing mode                      : Packed bitstream
Codec ID                         : XVID
Codec ID/Hint                    : XviD
Duration                         : 1h 14mn
Bit rate                         : 2 370 Kbps
Width                            : 704 pixels
Height                           : 356 pixels
Display aspect ratio             : 1.978
Frame rate                       : 23.976 fps
Color space                      : YUV
Chroma subsampling               : 4:2:0
Bit depth                        : 8 bits
Scan type                        : Progressive
Compression mode                 : Lossy
Bits/(Pixel*Frame)               : 0.394
Stream size                      : 1.23 GiB (90%)
Writing library                  : XviD 1.0.3 (UTC 2004-12-20)

Audio
ID                               : 1
Format                           : AC-3
Format/Info                      : Audio Coding 3
Mode extension                   : CM (complete main)
Codec ID                         : 2000
Duration                         : 1h 14mn
Bit rate mode                    : Constant
Bit rate                         : 256 Kbps
Channel(s)                       : 2 channels
Channel positions                : Front: L R
Sampling rate                    : 48.0 KHz
Bit depth                        : 16 bits
Compression mode                 : Lossy
Stream size                      : 136 MiB (10%)
Alignment                        : Aligned on interleaves
Interleave, duration             : 64 ms (1.53 video frames)
Interleave, preload duration     : 192 ms
Title                            : VTS_01_1 T80 2_0ch 192Kbps DELAY 0ms_new








Screenshots:
[img]http://i.imgur.com/2P9uW.png[/img]
[img]http://i.imgur.com/jJtLE.png[/img]
[img]http://i.imgur.com/BXSmi.png[/img]
[img]http://i.imgur.com/01uAV.png[/img]

Note: The film quality is BAD.  It looks like they used the worst possible camera to film this.  The film seems all slow and laggy, check out sample, its not the encode, it's the way the made it.  Also, this is a rape revenge film and was banned across the world until now as it was thougth to be a real snuff film.  Enjoy.

Source: 

Enjoy!

Respects to T00NG0D, ELEKTRI4KA, PA, YeFsTe, MrRep and everyone in the struggle...RiP MU & BTJ